<?xml version="1.0" encoding="UTF-8"?><svg id="a" xmlns="http://www.w3.org/2000/svg" viewBox="0 0 96 96"><path d="m76.36,29.205v53.875c0,1.657-1.343,3-3,3H22.64c-1.657,0-3-1.343-3-3V13.225c0-1.657,1.343-3,3-3h34.75l18.97,18.98Z" style="fill:#fff; stroke:#0082bb; stroke-linecap:round; stroke-linejoin:round; stroke-width:3.5px;"/><path d="m76.36,29.205h-15.97c-1.657,0-3-1.343-3-3v-15.98l18.97,18.98Z" style="fill:#fff; stroke:#0082bb; stroke-linecap:round; stroke-linejoin:round; stroke-width:3.5px;"/><line x1="76.36" y1="29.205" x2="57.39" y2="10.225" style="fill:none; stroke:#0082bb; stroke-linecap:round; stroke-linejoin:round; stroke-width:3.5px;"/><polygon points="50.224 79.085 62.391 75.314 53.995 66.918 50.224 79.085" style="fill:#fff; stroke:#0082bb; stroke-linecap:round; stroke-linejoin:round; stroke-width:3.5px;"/><rect x="62.574" y="46.207" width="11.874" height="29.182" transform="translate(63.057 -30.637) rotate(45)" style="fill:#fff; stroke:#ff8300; stroke-linecap:round; stroke-linejoin:round; stroke-width:3.5px;"/><path d="m78.107,42.718h7.874c1.104,0,2,.896,2,2v7.095h-11.874v-7.095c0-1.104.896-2,2-2Z" transform="translate(57.452 -44.17) rotate(45)" style="fill:#fff; stroke:#ff8300; stroke-linecap:round; stroke-linejoin:round; stroke-width:3.5px;"/></svg>